<svg width="865" height="606" viewBox="0 0 865 606" fill="none" xmlns="http://www.w3.org/2000/svg">
<g clip-path="url(#clip0_13_65)">
<path d="M1050 3.24524H-55V603.245H1050V3.24524Z" fill="url(#paint0_linear_13_65)"/>
<path d="M0 421.729L23.7933 420.216C47.5867 418.704 95.1733 415.679 142.539 407.108C190.015 398.537 237.159 384.42 284.635 375.143C332 365.968 379.587 361.531 426.952 372.824C474.428 384.118 521.572 410.939 569.048 418.199C616.413 425.459 664 412.956 711.365 411.141C758.841 409.326 805.985 417.998 853.461 419.409C900.827 420.72 948.413 414.67 972.207 411.645L996 408.62V606.254H972.207C948.413 606.254 900.827 606.254 853.461 606.254C805.985 606.254 758.841 606.254 711.365 606.254C664 606.254 616.413 606.254 569.048 606.254C521.572 606.254 474.428 606.254 426.952 606.254C379.587 606.254 332 606.254 284.635 606.254C237.159 606.254 190.015 606.254 142.539 606.254C95.1733 606.254 47.5867 606.254 23.7933 606.254H0V421.729Z" fill="#5145C4"/>
<path d="M0 469.12L23.7933 467.406C47.5867 465.793 95.1733 462.364 142.539 454.197C190.015 445.929 237.159 432.82 284.635 430.602C332 428.484 379.587 437.156 426.952 445.929C474.428 454.701 521.572 463.373 569.048 464.885C616.413 466.398 664 460.751 711.365 453.793C758.841 446.937 805.985 438.87 853.461 429.593C900.827 420.418 948.413 409.931 972.207 404.789L996 399.545V606.254H972.207C948.413 606.254 900.827 606.254 853.461 606.254C805.985 606.254 758.841 606.254 711.365 606.254C664 606.254 616.413 606.254 569.048 606.254C521.572 606.254 474.428 606.254 426.952 606.254C379.587 606.254 332 606.254 284.635 606.254C237.159 606.254 190.015 606.254 142.539 606.254C95.1733 606.254 47.5867 606.254 23.7933 606.254H0V469.12Z" fill="#4636AA"/>
<path d="M0 486.262L23.7933 485.455C47.5867 484.548 95.1733 482.934 142.539 485.455C190.015 487.976 237.159 494.631 284.635 493.018C332 491.304 379.587 481.22 426.952 481.926C474.428 482.531 521.572 494.026 569.048 494.53C616.413 495.034 664 484.548 711.365 478.498C758.841 472.448 805.985 470.834 853.461 476.481C900.827 482.229 948.413 495.337 972.207 501.891L996 508.445V606.254H972.207C948.413 606.254 900.827 606.254 853.461 606.254C805.985 606.254 758.841 606.254 711.365 606.254C664 606.254 616.413 606.254 569.048 606.254C521.572 606.254 474.428 606.254 426.952 606.254C379.587 606.254 332 606.254 284.635 606.254C237.159 606.254 190.015 606.254 142.539 606.254C95.1733 606.254 47.5867 606.254 23.7933 606.254H0V486.262Z" fill="#3B2890"/>
<path d="M0 544.745L23.7933 542.527C47.5867 540.409 95.1733 535.973 142.539 534.46C190.015 532.948 237.159 534.359 284.635 536.981C332 539.703 379.587 543.737 426.952 537.183C474.428 530.628 521.572 513.487 569.048 509.756C616.413 506.126 664 515.806 711.365 522.259C758.841 528.612 805.985 531.637 853.461 534.158C900.827 536.679 948.413 538.695 972.207 539.704L996 540.712V606.254H972.207C948.413 606.254 900.827 606.254 853.461 606.254C805.985 606.254 758.841 606.254 711.365 606.254C664 606.254 616.413 606.254 569.048 606.254C521.572 606.254 474.428 606.254 426.952 606.254C379.587 606.254 332 606.254 284.635 606.254C237.159 606.254 190.015 606.254 142.539 606.254C95.1733 606.254 47.5867 606.254 23.7933 606.254H0V544.745Z" fill="#2F1A77"/>
<path d="M0 573.987L23.7933 570.155C47.5867 566.223 95.1733 558.559 142.539 559.064C190.015 559.568 237.159 568.239 284.635 569.449C332 570.659 379.587 564.206 426.952 562.895C474.428 561.584 521.572 565.214 569.048 565.416C616.413 565.618 664 562.189 711.365 559.366C758.841 556.543 805.985 554.123 853.461 553.014C900.827 551.804 948.413 551.804 972.207 551.804H996V606.254H972.207C948.413 606.254 900.827 606.254 853.461 606.254C805.985 606.254 758.841 606.254 711.365 606.254C664 606.254 616.413 606.254 569.048 606.254C521.572 606.254 474.428 606.254 426.952 606.254C379.587 606.254 332 606.254 284.635 606.254C237.159 606.254 190.015 606.254 142.539 606.254C95.1733 606.254 47.5867 606.254 23.7933 606.254H0V573.987Z" fill="#230C5F"/>
</g>
<defs>
<linearGradient id="paint0_linear_13_65" x1="140" y1="263.245" x2="893" y2="258.245" gradientUnits="userSpaceOnUse">
<stop stop-color="#000321"/>
<stop offset="1" stop-color="#000321" stop-opacity="0.81"/>
</linearGradient>
<clipPath id="clip0_13_65">
<rect width="996" height="605" fill="white" transform="translate(0 0.245239)"/>
</clipPath>
</defs>
</svg>
