<svg width="865" height="440" viewBox="0 0 865 440" fill="none" xmlns="http://www.w3.org/2000/svg">
<g clip-path="url(#clip0_6_33)">
<path d="M579.069 440C593.678 405.226 608.287 370.526 630.297 336.777C652.306 303.029 681.716 270.305 722.083 251.417C762.449 232.457 813.677 227.332 865 222.208V440H579.069Z" fill="#461CBE"/>
<path d="M285.931 0.75473C275.262 37.2853 264.69 73.7427 242.2 107.272C219.71 140.801 185.302 171.328 142.917 189.337C100.628 207.42 50.2661 212.983 0 218.547V0.75473H285.931Z" fill="#461CBE"/>
<path d="M118.793 232.383C134.859 267.998 119.34 316.841 83.7109 336.459C48.0821 356.121 -7.71076 346.603 -36.7821 325.064C-65.8534 303.525 -68.1485 270.009 -56.3451 239.13C-44.4871 208.207 -18.5305 179.965 18.3004 177.105C55.1314 174.2 102.782 196.722 118.793 232.383Z" fill="#6000BA" fill-opacity="0.28"/>
<g clip-path="url(#clip1_6_33)">
<path d="M895.476 137.676C909.833 173.292 895.964 222.135 864.125 241.753C832.285 261.415 782.426 251.897 756.447 230.357C730.468 208.818 728.417 175.303 738.965 144.424C749.562 113.501 772.757 85.2584 805.671 82.3984C838.585 79.4938 881.167 102.016 895.476 137.676Z" fill="#6000BA" fill-opacity="0.28"/>
</g>
</g>
<defs>
<clipPath id="clip0_6_33">
<rect width="865" height="439.245" fill="white" transform="translate(0 0.75473)"/>
</clipPath>
<clipPath id="clip1_6_33">
<rect width="439.5" height="268.123" fill="white" transform="translate(438 -9)"/>
</clipPath>
</defs>
</svg>
