<svg width="865" height="571" viewBox="0 0 865 571" fill="none" xmlns="http://www.w3.org/2000/svg">
<g clip-path="url(#clip0_23_159)">
<path d="M0 127.083L22.0494 127.397C44.0989 127.711 88.1978 128.34 132.092 126.642C176.088 125.008 219.777 120.984 263.773 124.379C307.667 127.711 351.766 138.4 395.659 144.247C439.656 150.157 483.344 151.163 527.341 147.705C571.234 144.247 615.333 136.325 659.227 127.586C703.223 118.909 746.912 109.478 790.909 113.691C834.802 117.84 878.901 135.696 900.951 144.561L923 153.489V29H900.951C878.901 29 834.802 29 790.909 29C746.912 29 703.223 29 659.227 29C615.333 29 571.234 29 527.341 29C483.344 29 439.656 29 395.659 29C351.766 29 307.667 29 263.773 29C219.777 29 176.088 29 132.092 29C88.1978 29 44.0989 29 22.0494 29H0V127.083Z" fill="url(#paint0_linear_23_159)"/>
<path d="M0 98.0826L22.0494 98.397C44.0989 98.7113 88.1978 99.3401 132.092 97.6425C176.088 96.0078 219.777 91.9839 263.773 95.379C307.667 98.7113 351.766 109.4 395.659 115.247C439.656 121.157 483.344 122.163 527.341 118.705C571.234 115.247 615.333 107.325 659.227 98.5856C703.223 89.909 746.912 80.478 790.909 84.6905C834.802 88.8402 878.901 106.696 900.951 115.561L923 124.489V0H900.951C878.901 0 834.802 0 790.909 0C746.912 0 703.223 0 659.227 0C615.333 0 571.234 0 527.341 0C483.344 0 439.656 0 395.659 0C351.766 0 307.667 0 263.773 0C219.777 0 176.088 0 132.092 0C88.1978 0 44.0989 0 22.0494 0H0V98.0826Z" fill="#2F2497"/>
</g>
<defs>
<linearGradient id="paint0_linear_23_159" x1="7.8046e-06" y1="75.9999" x2="851" y2="110.5" gradientUnits="userSpaceOnUse">
<stop stop-color="#ECCD2A"/>
<stop offset="1" stop-color="#EC2AC1"/>
</linearGradient>
<clipPath id="clip0_23_159">
<rect width="907" height="571" fill="white"/>
</clipPath>
</defs>
</svg>
