<svg width="865" height="469" viewBox="0 0 865 469" fill="none" xmlns="http://www.w3.org/2000/svg">
<g clip-path="url(#clip0_6_39)">
<path d="M0 169.622L13.6624 168.058C27.2252 166.495 54.5501 163.368 81.7753 168.84C109 174.312 136.325 188.382 163.351 195.417C190.477 202.452 217.402 202.452 244.528 191.508C271.554 180.565 298.879 158.678 326.104 141.482C353.329 124.285 380.654 111.778 407.879 121.94C435.104 132.102 462.429 164.932 489.654 170.403C516.879 175.875 544.204 153.988 571.43 134.447C598.655 114.905 625.98 97.7083 653.005 96.9267C680.131 96.145 707.057 111.778 734.182 109.433C761.208 107.088 788.533 86.765 815.758 85.9833C842.983 85.2017 870.308 103.962 883.871 113.342L897.533 122.722V0H883.871C870.308 0 842.983 0 815.758 0C788.533 0 761.208 0 734.182 0C707.057 0 680.131 0 653.005 0C625.98 0 598.655 0 571.43 0C544.204 0 516.879 0 489.654 0C462.429 0 435.104 0 407.879 0C380.654 0 353.329 0 326.104 0C298.879 0 271.554 0 244.528 0C217.402 0 190.477 0 163.351 0C136.325 0 109 0 81.7753 0C54.5501 0 27.2252 0 13.6624 0H0V169.622Z" fill="#4D1B8C"/>
<path d="M0 235.282L13.6624 232.155C27.2252 229.028 54.5501 222.775 81.7753 229.81C109 236.845 136.325 257.168 163.351 266.548C190.477 275.928 217.402 274.365 244.528 257.95C271.554 241.535 298.879 210.268 326.104 193.072C353.329 175.875 380.654 172.748 407.879 187.6C435.104 202.452 462.429 235.282 489.654 237.627C516.879 239.972 544.204 211.832 571.43 189.163C598.655 166.495 625.98 149.298 653.005 146.953C680.131 144.608 707.057 157.115 734.182 157.897C761.208 158.678 788.533 147.735 815.758 152.425C842.983 157.115 870.308 177.438 883.871 187.6L897.533 197.762V121.158L883.871 111.778C870.308 102.398 842.983 83.6383 815.758 84.42C788.533 85.2017 761.208 105.525 734.182 107.87C707.057 110.215 680.131 94.5817 653.005 95.3633C625.98 96.145 598.655 113.342 571.43 132.883C544.204 152.425 516.879 174.312 489.654 168.84C462.429 163.368 435.104 130.538 407.879 120.377C380.654 110.215 353.329 122.722 326.104 139.918C298.879 157.115 271.554 179.002 244.528 189.945C217.402 200.888 190.477 200.888 163.351 193.853C136.325 186.818 109 172.748 81.7753 167.277C54.5501 161.805 27.2252 164.932 13.6624 166.495L0 168.058V235.282Z" fill="#132339"/>
<path d="M0 352.532L13.6624 351.75C27.2252 350.968 54.5501 349.405 81.7753 354.877C109 360.348 136.325 372.855 163.351 375.982C190.477 379.108 217.402 372.855 244.528 358.003C271.554 343.152 298.879 319.702 326.104 312.667C353.329 305.632 380.654 315.012 407.879 322.828C435.104 330.645 462.429 336.898 489.654 340.807C516.879 344.715 544.204 346.278 571.43 346.278C598.655 346.278 625.98 344.715 653.005 337.68C680.131 330.645 707.057 318.138 734.182 316.575C761.208 315.012 788.533 324.392 815.758 326.737C842.983 329.082 870.308 324.392 883.871 322.047L897.533 319.702V196.198L883.871 186.037C870.308 175.875 842.983 155.552 815.758 150.862C788.533 146.172 761.208 157.115 734.182 156.333C707.057 155.552 680.131 143.045 653.005 145.39C625.98 147.735 598.655 164.932 571.43 187.6C544.204 210.268 516.879 238.408 489.654 236.063C462.429 233.718 435.104 200.888 407.879 186.037C380.654 171.185 353.329 174.312 326.104 191.508C298.879 208.705 271.554 239.972 244.528 256.387C217.402 272.802 190.477 274.365 163.351 264.985C136.325 255.605 109 235.282 81.7753 228.247C54.5501 221.212 27.2252 227.465 13.6624 230.592L0 233.718V352.532Z" fill="#0A1321"/>
<path d="M0 394.742L13.6624 400.995C27.2252 407.248 54.5501 419.755 81.7753 425.227C109 430.698 136.325 429.135 163.351 426.79C190.477 424.445 217.402 421.318 244.528 419.755C271.554 418.192 298.879 418.192 326.104 414.283C353.329 410.375 380.654 402.558 407.879 400.213C435.104 397.868 462.429 400.995 489.654 404.903C516.879 408.812 544.204 413.502 571.43 414.283C598.655 415.065 625.98 411.938 653.005 407.248C680.131 402.558 707.057 396.305 734.182 399.432C761.208 402.558 788.533 415.065 815.758 416.628C842.983 418.192 870.308 408.812 883.871 404.122L897.533 399.432V318.138L883.871 320.483C870.308 322.828 842.983 327.518 815.758 325.173C788.533 322.828 761.208 313.448 734.182 315.012C707.057 316.575 680.131 329.082 653.005 336.117C625.98 343.152 598.655 344.715 571.43 344.715C544.204 344.715 516.879 343.152 489.654 339.243C462.429 335.335 435.104 329.082 407.879 321.265C380.654 313.448 353.329 304.068 326.104 311.103C298.879 318.138 271.554 341.588 244.528 356.44C217.402 371.292 190.477 377.545 163.351 374.418C136.325 371.292 109 358.785 81.7753 353.313C54.5501 347.842 27.2252 349.405 13.6624 350.187L0 350.968V394.742Z" fill="#09111D"/>
<path d="M0 469.782H13.6624C27.2252 469.782 54.5501 469.782 81.7753 469.782C109 469.782 136.325 469.782 163.351 469.782C190.477 469.782 217.402 469.782 244.528 469.782C271.554 469.782 298.879 469.782 326.104 469.782C353.329 469.782 380.654 469.782 407.879 469.782C435.104 469.782 462.429 469.782 489.654 469.782C516.879 469.782 544.204 469.782 571.43 469.782C598.655 469.782 625.98 469.782 653.005 469.782C680.131 469.782 707.057 469.782 734.182 469.782C761.208 469.782 788.533 469.782 815.758 469.782C842.983 469.782 870.308 469.782 883.871 469.782H897.533V397.868L883.871 402.558C870.308 407.248 842.983 416.628 815.758 415.065C788.533 413.502 761.208 400.995 734.182 397.868C707.057 394.742 680.131 400.995 653.005 405.685C625.98 410.375 598.655 413.502 571.43 412.72C544.204 411.938 516.879 407.248 489.654 403.34C462.429 399.432 435.104 396.305 407.879 398.65C380.654 400.995 353.329 408.812 326.104 412.72C298.879 416.628 271.554 416.628 244.528 418.192C217.402 419.755 190.477 422.882 163.351 425.227C136.325 427.572 109 429.135 81.7753 423.663C54.5501 418.192 27.2252 405.685 13.6624 399.432L0 393.178V469.782Z" fill="#080F1A"/>
</g>
<defs>
<clipPath id="clip0_6_39">
<rect width="897.533" height="469" fill="white"/>
</clipPath>
</defs>
</svg>
