<svg width="442" height="225" viewBox="0 0 442 225" fill="none" xmlns="http://www.w3.org/2000/svg">
<path d="M442 221.146L439.983 221.626C430.42 222.593 402.442 223.367 356.046 223.947C309.33 224.527 254.319 224.762 191.012 224.653C130.593 224.5 82.2722 224.051 46.0481 223.308C34.4415 223.068 24.8813 222.806 17.3673 222.523L7.89433 222.087C2.68997 221.786 0.0585303 221.472 0 221.146C1.57991 220.143 23.1564 219.309 64.7294 218.643C106.302 217.977 158.393 217.631 221 217.606C283.607 217.631 335.698 217.977 377.271 218.643C418.844 219.309 440.42 220.143 442 221.146Z" fill="url(#paint0_linear_20_97)" fill-opacity="0.92"/>
<path d="M248.332 0.00094175C188.431 0.250838 140.064 50.2591 140.308 111.693C140.552 173.126 189.314 222.729 249.215 222.479C309.117 222.229 357.484 172.221 357.24 110.788C356.996 49.3539 308.235 -0.249176 248.332 0.00094175Z" fill="#582FAF"/>
<path d="M242.06 118.183C243.793 119.945 246.181 121.03 248.813 121.02C253.867 120.998 257.998 116.928 258.288 111.822L305.055 63.4627L294.901 53.1339L248.733 100.865L217.42 69.0163L207.349 79.4292L239.265 111.901C239.418 114.355 240.461 116.556 242.06 118.183ZM248.391 14.6696C300.312 14.4529 342.726 57.599 342.937 110.847C343.148 164.095 301.078 207.594 249.157 207.81C197.237 208.027 154.823 164.881 154.611 111.633C154.4 58.385 196.47 14.8863 248.391 14.6696Z" fill="black"/>
<path d="M248.817 101.461C248.996 101.461 249.098 101.236 248.973 101.108L248.733 100.864L222.626 74.3115C219.773 71.4088 215.088 71.428 212.258 74.354C209.527 77.1774 209.545 81.6632 212.298 84.4645L238.884 111.513C239.011 111.642 239.241 111.54 239.239 111.359C239.239 111.309 239.258 111.26 239.293 111.224L248.679 101.519C248.715 101.482 248.765 101.46 248.817 101.461Z" fill="#6D6D6D"/>
<path d="M300.147 68.537C302.877 65.7139 302.859 61.2291 300.106 58.4285C297.253 55.5262 292.569 55.5451 289.739 58.4705L249.336 100.241C249 100.588 249.003 101.139 249.341 101.483L258.259 111.145C258.291 111.181 258.31 111.228 258.31 111.276C258.309 111.459 258.541 111.56 258.668 111.429L300.147 68.537Z" fill="#919191"/>
<path d="M252.693 110.333L196.204 78.0455C194.479 77.0595 192.301 77.6944 191.34 79.4634C190.859 80.3477 190.774 81.3487 191.023 82.2512C191.274 83.1539 191.86 83.959 192.722 84.4518L249.212 116.74L252.693 110.333Z" fill="#484848"/>
<path d="M248.813 121.019C254.071 120.997 258.331 116.593 258.31 111.2C258.288 105.808 253.993 101.439 248.735 101.461C243.477 101.483 239.217 105.887 239.239 111.28C239.26 116.672 243.555 121.041 248.813 121.019Z" fill="black"/>
<path d="M248.522 47.6746C246.547 47.6826 244.939 46.0474 244.931 44.0222L244.873 29.3533C244.865 27.3277 246.46 25.6796 248.434 25.6711C250.409 25.663 252.017 27.2983 252.025 29.3235L252.083 43.9923C252.091 46.0174 250.496 47.6665 248.522 47.6746Z" fill="#BCB6B6"/>
<path d="M328.648 114.574L314.345 114.634C312.37 114.642 310.763 113.007 310.755 110.981C310.747 108.956 312.341 107.308 314.316 107.299L328.619 107.24C330.594 107.231 332.201 108.867 332.21 110.892C332.218 112.917 330.623 114.566 328.648 114.574Z" fill="#928F8F"/>
<path d="M249.114 196.808C247.139 196.817 245.531 195.181 245.523 193.156L245.465 178.487C245.457 176.462 247.051 174.814 249.026 174.805C251.001 174.797 252.609 176.432 252.617 178.458L252.675 193.126C252.683 195.152 251.088 196.8 249.114 196.808Z" fill="#ABA0A0"/>
<path d="M183.232 115.181L168.929 115.241C166.954 115.249 165.347 113.614 165.339 111.588C165.331 109.563 166.925 107.914 168.9 107.906L183.203 107.847C185.178 107.838 186.785 109.473 186.794 111.499C186.802 113.524 185.207 115.173 183.232 115.181Z" fill="#B0A9A9"/>
<path d="M380.376 135.143L380.376 135.143L380.376 135.143Z" fill="white"/>
<path d="M368.007 101.204V101.204C367.521 101.218 367.156 101.256 366.912 101.319C366.814 101.342 366.719 101.372 366.627 101.408L366.492 101.469C366.404 101.513 366.32 101.565 366.24 101.626C366.161 101.688 366.085 101.759 366.015 101.838C365.975 101.869 365.876 102.003 365.718 102.241C365.564 102.487 365.372 102.879 365.142 103.419L368.007 101.204Z" fill="black"/>
<path d="M366.515 103.894L366.695 103.836C367.496 103.591 368.056 103.353 368.376 103.121C368.445 103.069 368.508 103.015 368.562 102.959C368.597 102.933 368.665 102.846 368.767 102.696C368.862 102.545 368.953 102.323 369.038 102.028L366.515 103.894Z" fill="black"/>
<defs>
<linearGradient id="paint0_linear_20_97" x1="221" y1="217.606" x2="221" y2="224.679" gradientUnits="userSpaceOnUse">
<stop stop-color="#00F0FF"/>
<stop offset="1" stop-color="#00F0FF" stop-opacity="0"/>
</linearGradient>
</defs>
</svg>
