<svg width="157" height="68" viewBox="0 0 157 68" fill="none" xmlns="http://www.w3.org/2000/svg">
<g clip-path="url(#clip0_26_201)">
<path d="M156.366 58.8146C156.366 63.6114 152.477 67.5 147.68 67.5H8.68543C3.88859 67.5 0 63.6114 0 58.8146V9.18543C0 4.38859 3.88859 0.5 8.68543 0.5H147.68C152.477 0.5 156.366 4.38859 156.366 9.18543V58.8146Z" fill="#092E20"/>
<path d="M26.9698 11.0212H34.3747V45.2964C30.5761 46.0176 27.7872 46.3061 24.7581 46.3061C15.7184 46.3061 11.0063 42.2196 11.0063 34.3813C11.0063 26.8324 16.0072 21.928 23.7484 21.928C24.9504 21.928 25.8639 22.0244 26.9701 22.3123V11.0212H26.9698ZM26.9698 28.2742C26.1044 27.986 25.3832 27.8899 24.4696 27.8899C20.7191 27.8899 18.5552 30.198 18.5552 34.2365C18.5552 38.18 20.6229 40.3435 24.4215 40.3435C25.2386 40.3435 25.912 40.2955 26.9698 40.1519V28.2742Z" fill="white"/>
<path d="M46.1547 22.4564V39.6228C46.1547 45.5367 45.7219 48.3734 44.4238 50.8261C43.2215 53.1823 41.6345 54.6722 38.3651 56.3072L31.489 53.0374C34.7588 51.4989 36.3454 50.1536 37.3551 48.0849C38.4132 45.9697 38.75 43.5167 38.75 37.0736V22.4564H46.1547ZM38.75 11.0608H46.1547V18.6584H38.75V11.0608Z" fill="white"/>
<path d="M50.6273 24.1394C53.8974 22.6005 57.0226 21.9277 60.4366 21.9277C64.2352 21.9277 66.7354 22.9374 67.8415 24.909C68.4663 26.0145 68.6586 27.4569 68.6586 30.535V45.5847C65.3405 46.0661 61.1575 46.4023 58.0804 46.4023C51.8777 46.4023 49.0885 44.2381 49.0885 39.4304C49.0885 34.2365 52.7909 31.8328 61.879 31.0629V29.4279C61.879 28.082 61.2059 27.6015 59.3304 27.6015C56.5899 27.6015 53.5125 28.3705 50.627 29.8612V24.1394H50.6273ZM62.2156 35.92C57.3108 36.4014 55.7241 37.1703 55.7241 39.0935C55.7241 40.5359 56.638 41.2094 58.6573 41.2094C59.7635 41.2094 60.7729 41.1129 62.2156 40.8731V35.92Z" fill="white"/>
<path d="M72.2652 23.6108C76.6405 22.4563 80.2468 21.9277 83.9012 21.9277C87.6999 21.9277 90.4407 22.7926 92.0761 24.4763C93.6146 26.0623 94.0951 27.7932 94.0951 31.4966V46.0177H86.6905V31.7848C86.6905 28.948 85.7289 27.8897 83.0845 27.8897C82.0748 27.8897 81.1613 27.9861 79.6702 28.4188V46.0174H72.2655V23.6108H72.2652Z" fill="white"/>
<path d="M96.9737 50.0567C99.5706 51.4027 102.167 52.0277 104.908 52.0277C109.764 52.0277 111.831 50.0567 111.831 45.3443C111.831 45.2965 111.831 45.2481 111.831 45.1994C110.389 45.9209 108.946 46.2097 107.023 46.2097C100.532 46.2097 96.3961 41.93 96.3961 35.1507C96.3961 26.7358 102.503 21.9758 113.322 21.9758C116.495 21.9758 119.429 22.3121 122.987 23.0327L120.451 28.3748C118.48 27.9899 120.293 28.323 118.804 28.1788V28.9481L118.899 32.0729L118.947 36.1123C118.995 37.1214 118.995 38.1317 119.044 39.141C119.044 40.0545 119.044 40.4879 119.044 41.161C119.044 47.5082 118.515 50.4895 116.928 52.9412C114.62 56.5479 110.629 58.3268 104.955 58.3268C102.07 58.3268 99.5703 57.8938 96.9734 56.8841V50.0567H96.9737ZM111.687 27.9381C111.591 27.9381 111.495 27.9381 111.447 27.9381H110.918C109.476 27.89 107.793 28.2743 106.639 28.9955C104.86 30.0058 103.946 31.8325 103.946 34.4295C103.946 38.1323 105.774 40.2475 109.043 40.2475C110.053 40.2475 110.87 40.0552 111.832 39.7667V39.2378V37.2184C111.832 36.353 111.784 35.3908 111.784 34.3814L111.736 30.9674L111.688 28.5153V27.9381H111.687Z" fill="white"/>
<path d="M134.482 21.832C141.887 21.832 146.407 26.4964 146.407 34.0447C146.407 41.7862 141.695 46.6426 134.194 46.6426C126.789 46.6426 122.221 41.9785 122.221 34.478C122.221 26.6878 126.933 21.832 134.482 21.832ZM134.337 40.6803C137.175 40.6803 138.858 38.3241 138.858 34.2367C138.858 30.1983 137.223 27.7936 134.386 27.7936C131.453 27.7936 129.77 30.1505 129.77 34.2367C129.77 38.3244 131.453 40.6803 134.337 40.6803Z" fill="white"/>
</g>
<defs>
<clipPath id="clip0_26_201">
<rect width="156.366" height="67" fill="white" transform="translate(0 0.5)"/>
</clipPath>
</defs>
</svg>
