<svg width="181" height="90" viewBox="0 0 181 90" fill="none" xmlns="http://www.w3.org/2000/svg">
<path d="M30.4213 66.9448L56.0053 41.355H37.4025L21.1228 57.6405L30.4213 66.9448Z" fill="#39CEFD"/>
<path d="M7.16634 43.6839L37.4024 13.4478H56.0052L16.4707 52.9882L7.16634 43.6839Z" fill="#39CEFD"/>
<path d="M37.4024 73.92H56.0053L39.7256 57.6404L30.4213 66.9447L37.4024 73.92Z" fill="#03569B"/>
<path d="M39.7256 57.6404L30.4213 66.9447L44.2206 62.1644L39.7256 57.6404Z" fill="url(#paint0_linear_28_222)"/>
<path d="M21.1228 57.6346L30.4271 48.3303L39.7314 57.6346L30.4271 66.9448L21.1228 57.6346Z" fill="#16B9FD"/>
<path d="M56.0052 41.3549L39.7256 57.6404L56.0052 73.9259H37.4024L30.4213 66.9447L21.117 57.6404L37.4024 41.3549H56.0052ZM37.4024 13.4478L7.16634 43.6839L16.4707 52.9882L56.0052 13.4478H37.4024Z" fill="url(#paint1_radial_28_222)"/>
<path d="M61.8962 29.6587H78.2005V32.7643H65.3123V42.3916H76.9582V45.4971H65.3123V57.6089H62.0515V29.6587H61.8962Z" fill="#808080"/>
<path d="M82.0824 29.6587H85.3433V57.7642H82.0824V29.6587Z" fill="#808080"/>
<path d="M97.6103 58.385C95.1259 58.385 93.4178 57.6086 92.0203 56.2111C90.778 54.8136 90.1569 52.795 90.1569 50.3105V37.7329H93.4178V49.8447C93.4178 51.708 93.8836 53.1055 94.66 54.0372C95.5917 54.9689 96.6786 55.4347 98.2314 55.4347C99.3184 55.4347 100.405 55.1241 101.182 54.503C102.113 53.8819 102.735 53.1055 103.2 52.1738C103.666 51.2422 103.977 50.1552 103.977 49.0683V37.7329H107.238V57.7639H104.132V54.8136H103.977C103.356 55.7453 102.579 56.6769 101.337 57.2981C100.25 58.0744 99.0078 58.385 97.6103 58.385Z" fill="#808080"/>
<path d="M120.281 58.0746C119.505 58.0746 118.728 57.9194 117.952 57.6088C117.331 57.2982 116.71 56.9877 116.244 56.5218C115.778 56.056 115.312 55.4349 115.002 54.8138C114.691 54.1927 114.536 53.4163 114.536 52.4846V40.6834H110.964V37.7331H114.536V32.1431H117.797V37.7331H122.61V40.6834H117.797V51.5529C117.797 52.6399 117.952 53.4163 118.418 54.0374C118.884 54.6585 119.66 54.9691 120.592 54.9691C121.368 54.9691 122.144 54.8138 122.766 54.3479V57.6088C122.3 57.7641 121.989 57.9194 121.523 58.0746C121.523 58.0746 120.902 58.0746 120.281 58.0746Z" fill="#808080"/>
<path d="M134.411 58.0746C133.635 58.0746 132.859 57.9194 132.082 57.6088C131.461 57.2982 130.84 56.9877 130.374 56.5218C129.908 56.056 129.442 55.4349 129.132 54.8138C128.821 54.1927 128.666 53.4163 128.666 52.4846V40.6834H125.405V37.7331H128.977V32.1431H132.238V37.7331H137.051V40.6834H132.238V51.5529C132.238 52.6399 132.393 53.4163 132.859 54.0374C133.324 54.6585 134.101 54.9691 135.033 54.9691C135.809 54.9691 136.585 54.8138 137.206 54.3479V57.6088C136.741 57.7641 136.43 57.9194 135.964 58.0746C135.654 58.0746 135.033 58.0746 134.411 58.0746Z" fill="#808080"/>
<path d="M149.163 58.385C147.3 58.385 145.591 57.9192 144.039 56.9875C142.486 56.0558 141.399 54.8136 140.467 53.2608C139.691 51.708 139.225 49.8447 139.225 47.8261C139.225 45.9627 139.691 44.0994 140.467 42.5466C141.244 40.9938 142.486 39.5963 143.883 38.6646C145.281 37.7329 146.989 37.2671 149.008 37.2671C151.026 37.2671 152.734 37.7329 154.132 38.6646C155.529 39.5963 156.616 40.6832 157.393 42.236C158.169 43.7888 158.635 45.4969 158.635 47.5155C158.635 47.9813 158.635 48.2919 158.48 48.6024H142.486C142.641 50.1552 142.952 51.3975 143.573 52.4844C144.194 53.5714 145.126 54.3478 146.057 54.8136C147.144 55.2794 148.076 55.59 149.163 55.59C151.803 55.59 153.666 54.3478 155.064 52.0186L157.859 53.4161C156.927 54.9689 155.84 56.3664 154.287 57.2981C153.045 57.9192 151.337 58.385 149.163 58.385ZM154.908 45.6521C154.908 44.8758 154.598 43.9441 154.132 43.1677C153.666 42.3913 153.045 41.6149 152.113 40.9938C151.182 40.3727 150.095 40.0621 148.697 40.0621C147.144 40.0621 145.747 40.5279 144.66 41.6149C143.573 42.5466 142.952 43.9441 142.486 45.6521H154.908Z" fill="#808080"/>
<path d="M162.362 37.7329H165.467V40.9938H165.622C166.088 39.9068 166.709 38.9752 167.952 38.354C169.039 37.5776 170.281 37.2671 171.523 37.2671C172.455 37.2671 173.231 37.4224 173.852 37.7329V41.3043C173.076 40.8385 172.144 40.6832 171.057 40.6832C170.126 40.6832 169.194 40.9938 168.417 41.4596C167.641 42.0807 167.02 42.7019 166.399 43.6335C165.933 44.5652 165.622 45.4969 165.622 46.5838V57.7639H162.362V37.7329Z" fill="#808080"/>
<defs>
<linearGradient id="paint0_linear_28_222" x1="-1452.38" y1="-640.339" x2="-1452.12" y2="-640.608" gradientUnits="userSpaceOnUse">
<stop stop-color="#1A237E" stop-opacity="0.4"/>
<stop offset="1" stop-color="#1A237E" stop-opacity="0"/>
</linearGradient>
<radialGradient id="paint1_radial_28_222" cx="0" cy="0" r="1" gradientUnits="userSpaceOnUse" gradientTransform="translate(-1326.79 -530.524) scale(2.87213)">
<stop stop-color="white" stop-opacity="0.1"/>
<stop offset="1" stop-color="white" stop-opacity="0"/>
</radialGradient>
</defs>
</svg>
