<svg width="89" height="88" viewBox="0 0 89 88" fill="none" xmlns="http://www.w3.org/2000/svg">
<g clip-path="url(#clip0_26_211)">
<path d="M87.9653 20.0778C87.9979 20.1944 88.0145 20.3146 88.0148 20.4354V39.2095C88.0148 39.4504 87.9491 39.6871 87.8242 39.8956C87.6993 40.1041 87.5198 40.2771 87.3036 40.3969L71.0119 49.4691V67.4509C71.0119 67.9403 70.743 68.392 70.3043 68.6384L36.2966 87.5733C36.2188 87.6161 36.1339 87.6435 36.0489 87.6726C36.0171 87.6828 35.987 87.7016 35.9534 87.7102C35.7157 87.7708 35.4658 87.7708 35.2281 87.7102C35.1892 87.6999 35.1538 87.6794 35.1166 87.6657C35.0388 87.6383 34.9574 87.6144 34.8831 87.5733L0.882539 68.6384C0.666544 68.5184 0.487073 68.3455 0.362216 68.137C0.237359 67.9285 0.171527 67.6919 0.171356 67.4509L0.171356 11.1288C0.171356 11.0056 0.189047 10.8858 0.220891 10.7695C0.231506 10.7301 0.256274 10.6942 0.270426 10.6548C0.296963 10.583 0.321731 10.5094 0.360651 10.4427C0.387188 10.3982 0.426108 10.3623 0.457952 10.3212C0.498642 10.2664 0.535793 10.21 0.583559 10.1621C0.624249 10.1227 0.677322 10.0936 0.723319 10.0594C0.774623 10.0183 0.82062 9.97383 0.879001 9.94132H0.88077L17.8819 0.473882C18.0972 0.354072 18.3412 0.291016 18.5896 0.291016C18.8379 0.291016 19.082 0.354072 19.2972 0.473882L36.2984 9.94132H36.3019C36.3585 9.97554 36.4063 10.0183 36.4576 10.0577C36.5036 10.0919 36.5549 10.1227 36.5956 10.1603C36.6451 10.21 36.6805 10.2664 36.723 10.3212C36.753 10.3623 36.7937 10.3982 36.8185 10.4427C36.8592 10.5111 36.8822 10.583 36.9105 10.6548C36.9247 10.6942 36.9494 10.7301 36.96 10.7712C36.9926 10.8878 37.0093 11.008 37.0096 11.1288V46.307L51.1766 38.4172V20.4337C51.1766 20.3139 51.1943 20.1924 51.2262 20.0778C51.2385 20.0367 51.2615 20.0008 51.2757 19.9614C51.304 19.8896 51.3288 19.816 51.3677 19.7493C51.3942 19.7048 51.4331 19.6688 51.4632 19.6278C51.5057 19.573 51.5411 19.5166 51.5906 19.4687C51.6313 19.4293 51.6826 19.4002 51.7286 19.366C51.7817 19.3249 51.8277 19.2804 51.8843 19.2479H51.886L68.889 9.78048C69.1042 9.66051 69.3482 9.59735 69.5966 9.59735C69.845 9.59735 70.0891 9.66051 70.3043 9.78048L87.3054 19.2479C87.3656 19.2821 87.4116 19.3249 87.4646 19.3643C87.5089 19.3985 87.5602 19.4293 87.6009 19.4669C87.6504 19.5166 87.6858 19.573 87.7282 19.6278C87.7601 19.6688 87.799 19.7048 87.8238 19.7493C87.8645 19.816 87.8875 19.8896 87.9158 19.9614C87.9317 20.0008 87.9547 20.0367 87.9653 20.0778ZM85.1807 38.4172V22.8053L79.2312 26.1179L71.0119 30.6951V46.307L85.1825 38.4172H85.1807ZM68.1796 66.6587V51.0365L60.0947 55.5024L37.0078 68.2466V84.016L68.1796 66.6587ZM3.00547 13.4987V66.6587L34.1737 84.0143V68.2483L17.8908 59.3353L17.8855 59.3318L17.8784 59.3284C17.8236 59.2976 17.7776 59.2531 17.7263 59.2155C17.682 59.1813 17.6307 59.1539 17.5918 59.1162L17.5883 59.1111C17.5423 59.0683 17.5104 59.0153 17.4715 58.9674C17.4361 58.9212 17.3937 58.8818 17.3654 58.8339L17.3636 58.8288C17.3317 58.7774 17.3123 58.7158 17.2893 58.6577C17.2663 58.6063 17.2362 58.5584 17.2221 58.5037V58.502C17.2044 58.4369 17.2008 58.3685 17.1937 58.3018C17.1867 58.2504 17.1725 58.1991 17.1725 58.1478V21.3885L8.955 16.8096L3.00547 13.5004V13.4987ZM18.5913 3.24242L4.42607 11.1288L18.5878 19.0152L32.7513 11.1271L18.5878 3.24242H18.5913ZM25.9579 52.4601L34.1755 47.8847V13.4987L28.2259 16.8113L20.0066 21.3885V55.7745L25.9579 52.4601ZM69.5966 12.549L55.4331 20.4354L69.5966 28.3218L83.7583 20.4337L69.5966 12.549ZM68.1796 30.6951L59.9603 26.1179L54.0107 22.8053V38.4172L62.2283 42.9927L68.1796 46.307V30.6951ZM35.589 65.8767L56.3637 54.4056L66.7483 48.6735L52.5954 40.7922L36.3002 49.8661L21.4485 58.1358L35.589 65.8767Z" fill="#FF2D20"/>
</g>
<defs>
<clipPath id="clip0_26_211">
<rect width="88" height="88" fill="white" transform="translate(0.171387)"/>
</clipPath>
</defs>
</svg>
