<svg width="164" height="94" viewBox="0 0 164 94" fill="none" xmlns="http://www.w3.org/2000/svg">
<g clip-path="url(#clip0_23_173)">
<path d="M38.5809 24.7373H69.2557V27.0734H41.3928V44.6554H67.5942V46.9915H41.3928V66.2949H69.5753V68.631H38.5809V24.7373ZM72.0037 24.7373H75.2629L89.7056 44.0407L104.468 24.7373L124.547 0.217529L91.5589 46.0694L108.558 68.631H105.171L89.7056 48.0981L74.1765 68.631H70.8534L87.9802 46.0694L72.0037 24.7373ZM109.772 27.0734V24.7373H144.729V27.0734H128.624V68.631H125.812V27.0734H109.772Z" fill="#EBEBEB"/>
<path d="M0.205521 24.7373H3.72034L52.1877 94.2299L32.1584 68.631L3.14519 28.057L3.01738 68.631H0.205521V24.7373Z" fill="#EBEBEB"/>
<path d="M137.395 65.5897C137.977 65.5897 138.401 65.1632 138.401 64.6121C138.401 64.0609 137.977 63.6344 137.395 63.6344C136.821 63.6344 136.39 64.0609 136.39 64.6121C136.39 65.1632 136.821 65.5897 137.395 65.5897ZM140.158 63.0176C140.158 64.6449 141.382 65.7078 143.167 65.7078C145.069 65.7078 146.218 64.6121 146.218 62.7092V56.0099H144.686V62.7027C144.686 63.7591 144.132 64.3234 143.154 64.3234C142.278 64.3234 141.683 63.7984 141.663 63.0176H140.158ZM148.221 62.9323C148.331 64.6252 149.801 65.7078 151.99 65.7078C154.329 65.7078 155.792 64.5727 155.792 62.7617C155.792 61.3379 154.958 60.5505 152.934 60.0977L151.846 59.8418C150.56 59.5531 150.041 59.166 150.041 58.4902C150.041 57.6372 150.848 57.0794 152.058 57.0794C153.207 57.0794 154 57.6241 154.144 58.4967H155.635C155.546 56.9023 154.083 55.7803 152.079 55.7803C149.924 55.7803 148.488 56.9023 148.488 58.5886C148.488 59.9796 149.302 60.8064 151.087 61.2066L152.359 61.5019C153.665 61.7972 154.24 62.2302 154.24 62.952C154.24 63.7919 153.337 64.4021 152.106 64.4021C150.786 64.4021 149.87 63.8312 149.74 62.9323H148.221Z" fill="#EBEBEB"/>
</g>
<defs>
<clipPath id="clip0_23_173">
<rect width="162.984" height="94" fill="white" transform="translate(0.0457611)"/>
</clipPath>
</defs>
</svg>
