<svg width="161" height="50" viewBox="0 0 161 50" fill="none" xmlns="http://www.w3.org/2000/svg">
<g clip-path="url(#clip0_23_181)">
<path d="M56.6016 16.792H61.2993L71.2552 32.9995V16.792H75.5917V39.7574H70.9261L60.9381 23.5835V39.7574H56.6016V16.792Z" fill="white"/>
<path d="M94.9747 39.7575H90.9342V37.1922C90.014 38.9975 88.1421 40.014 85.7766 40.014C82.0313 40.014 79.599 37.3237 79.599 33.4517V23.2212H83.6403V32.6052C83.6403 34.869 85.0209 36.4435 87.0904 36.4435C89.3575 36.4435 90.9342 34.6719 90.9342 32.2445V23.2212H94.9747V39.7575Z" fill="white"/>
<path d="M109.038 39.4957L105.161 33.9836L101.284 39.4957H96.9796L102.96 30.8669L97.4401 22.9595H101.843L105.161 27.718L108.446 22.9595H112.882L107.329 30.8669L113.309 39.4957H109.038Z" fill="white"/>
<path d="M121.523 18.2346V23.2208H126.122V26.6005H121.523V34.8093C121.523 35.0849 121.632 35.3494 121.827 35.5445C122.022 35.7396 122.287 35.8494 122.563 35.8498H126.122V39.7506H123.46C119.846 39.7506 117.481 37.6503 117.481 33.9788V26.6037H114.229V23.2208H116.269C117.222 23.2208 117.775 22.6548 117.775 21.7185V18.2346H121.523Z" fill="white"/>
<path d="M136.31 34.5563V16.792H140.645V33.1951C140.645 37.625 138.509 39.7574 134.895 39.7574H129.849V35.8566H135.008C135.353 35.8566 135.684 35.7196 135.928 35.4758C136.173 35.232 136.31 34.9012 136.31 34.5563Z" fill="white"/>
<path d="M143.243 32.0469H147.417C147.648 34.6121 149.357 36.2459 152.117 36.2459C154.581 36.2459 156.291 35.263 156.291 33.2285C156.291 28.3064 143.928 31.7182 143.928 22.9258C143.931 19.1533 147.184 16.532 151.858 16.532C156.721 16.532 160.006 19.32 160.207 23.6184H156.055C155.859 21.6176 154.289 20.2724 151.85 20.2724C149.583 20.2724 148.17 21.3225 148.17 22.9291C148.17 28.0146 160.693 24.2117 160.693 33.166C160.693 37.4307 157.177 40.0232 152.118 40.0232C146.894 40.0232 143.477 36.8727 143.247 32.0501" fill="white"/>
<path fill-rule="evenodd" clip-rule="evenodd" d="M22.3239 11.6439C21.111 9.5204 18.0785 9.5204 16.8655 11.6439L3.64601 34.7872C2.43303 36.9107 3.94925 39.5651 6.37521 39.5651H16.6952C15.6586 38.6427 15.2746 37.047 16.0591 35.6778L26.071 18.2037L22.3239 11.6439Z" fill="#80EEC0"/>
<path d="M30.7003 16.7206C31.7042 14.9831 34.2138 14.9831 35.2177 16.7206L46.158 35.6559C47.1619 37.3934 45.907 39.5652 43.8994 39.5652H22.0187C20.011 39.5652 18.7562 37.3934 19.76 35.6559L30.7003 16.7206Z" fill="#00DC82"/>
</g>
<defs>
<clipPath id="clip0_23_181">
<rect width="160" height="48.0751" fill="white" transform="translate(0.692688 0.962402)"/>
</clipPath>
</defs>
</svg>
