<svg width="157" height="56" viewBox="0 0 157 56" fill="none" xmlns="http://www.w3.org/2000/svg">
<path fill-rule="evenodd" clip-rule="evenodd" d="M135.982 48.2678V55.3911H148.851C151.488 55.3911 156.014 53.4627 156.171 48.0711V45.3162C156.171 40.7117 152.393 37.9962 148.851 37.9962H142.437V34.6904H155.148V27.5278H142.948C139.8 27.5278 135.589 30.1252 135.589 34.9659V37.4452C135.589 42.2859 139.76 44.7652 142.948 44.7652C151.803 44.8046 140.823 44.7652 149.009 44.7652V48.2285L135.982 48.2678ZM67.0327 46.5362C67.0327 46.5362 73.9198 45.9459 73.9198 37.0517C73.9198 28.1575 65.5766 27.3311 65.5766 27.3311H50.543V55.3911H58.0991V48.622L64.632 55.3911H75.8088L67.0327 46.5362ZM64.1204 40.7904H58.0991V34.3756H64.1598C64.1598 34.3756 65.852 35.0052 65.852 37.5633C65.852 40.1214 64.1204 40.7904 64.1204 40.7904ZM92.574 27.5278H84.8998C79.4295 27.5278 77.5798 32.4865 77.5798 34.8478V55.3911H85.254V50.4717H92.4559V55.3911H99.894V34.8478C99.894 28.8659 94.463 27.5278 92.574 27.5278ZM92.4559 42.522H85.2146V35.7136C85.2146 35.7136 85.2146 34.1788 87.6153 34.1788H90.252C92.3772 34.1788 92.4166 35.7136 92.4166 35.7136V42.522H92.4559Z" fill="#CC0000"/>
<path d="M111.386 27.5278H103.397V55.3911H111.386V27.5278Z" fill="#CC0000"/>
<path fill-rule="evenodd" clip-rule="evenodd" d="M122.602 48.1891V27.5278H114.652V48.1891V55.3911H122.602H133.346V48.1891H122.602Z" fill="#CC0000"/>
<path fill-rule="evenodd" clip-rule="evenodd" d="M3.12044 55.3909H34.2108C34.2108 55.3909 28.2682 28.2754 47.9456 17.2954C52.2353 15.2096 65.8914 7.41736 88.245 23.9464C88.9533 23.3561 89.6224 22.8838 89.6224 22.8838C89.6224 22.8838 69.1579 2.45865 46.3714 4.74123C34.9191 5.76445 20.8301 16.1935 12.5656 29.9677C4.30108 43.7419 3.12044 55.3909 3.12044 55.3909Z" fill="#CC0000"/>
<path fill-rule="evenodd" clip-rule="evenodd" d="M3.12044 55.3909H34.2108C34.2108 55.3909 28.2682 28.2754 47.9456 17.2954C52.2353 15.2096 65.8914 7.41736 88.245 23.9464C88.9533 23.3561 89.6224 22.8838 89.6224 22.8838C89.6224 22.8838 69.1579 2.45865 46.3714 4.74123C34.9191 5.76445 20.8301 16.1935 12.5656 29.9677C4.30108 43.7419 3.12044 55.3909 3.12044 55.3909Z" fill="#CC0000"/>
<path fill-rule="evenodd" clip-rule="evenodd" d="M3.12044 55.3909H34.2108C34.2108 55.3909 28.2682 28.2754 47.9456 17.2954C52.2353 15.2096 65.8914 7.41736 88.245 23.9464C88.9533 23.3561 89.6224 22.8838 89.6224 22.8838C89.6224 22.8838 69.1579 2.45865 46.3714 4.74123C34.8798 5.76446 20.7908 16.1935 12.5262 29.9677C4.26173 43.7419 3.12044 55.3909 3.12044 55.3909ZM67.8985 6.9451L68.0559 4.30833C67.7017 4.11155 66.7179 3.6393 64.2385 2.93091L64.0811 5.52833C65.3798 5.96123 66.6392 6.43349 67.8985 6.9451Z" fill="#CC0000"/>
<path fill-rule="evenodd" clip-rule="evenodd" d="M64.1598 15.2885L64.0024 17.7678C65.3011 17.8072 66.5998 17.9646 67.8985 18.2401L68.0559 15.8001C66.7179 15.5246 65.4192 15.3672 64.1598 15.2885ZM49.5985 3.00978H49.9921L49.205 0.609131C47.985 0.609131 46.7256 0.687841 45.4269 0.84526L46.1746 3.1672C47.3159 3.04913 48.4572 3.00978 49.5985 3.00978ZM51.4875 17.4924L52.3927 20.2078C53.534 19.6569 54.6753 19.1846 55.8166 18.8304L54.9508 16.233C53.6127 16.6265 52.4714 17.0595 51.4875 17.4924ZM33.6204 7.14203L31.8495 4.42655C30.8656 4.93816 29.8424 5.48913 28.7798 6.11881L30.5901 8.87365C31.6133 8.24397 32.5972 7.65365 33.6204 7.14203ZM41.6882 24.8517L43.5772 27.6853C44.2463 26.7014 45.0333 25.7962 45.8992 24.8911L44.1282 22.2149C43.223 23.0414 42.3966 23.9466 41.6882 24.8517ZM35.9817 37.524L39.1695 40.0427C39.3269 38.5078 39.6024 36.973 39.9959 35.4382L37.1624 33.1949C36.6508 34.6511 36.2966 36.1072 35.9817 37.524ZM18.7443 18.8304L15.9501 16.3904C14.9269 17.3743 13.943 18.3582 13.0379 19.342L16.0682 21.9395C16.8946 20.8769 17.7998 19.8143 18.7443 18.8304ZM6.85915 36.422L2.33334 34.7691C1.5856 36.4614 0.759149 38.4291 0.365601 39.4917L4.89141 41.1446C5.40302 39.8066 6.22947 37.8782 6.85915 36.422ZM35.3914 47.5201C35.4701 49.6059 35.6669 51.2982 35.8637 52.4788L40.5862 54.1711C40.2321 52.6362 39.8779 50.9046 39.6417 49.0549L35.3914 47.5201Z" fill="#CC0000"/>
</svg>
