<svg width="154" height="108" viewBox="0 0 154 108" fill="none" xmlns="http://www.w3.org/2000/svg">
<path d="M121.188 53.7914C121.188 47.8952 113.804 42.3074 102.484 38.8423C105.096 27.3039 103.935 18.124 98.819 15.185C97.6398 14.4956 96.2609 14.169 94.7552 14.169V18.2147C95.5897 18.2147 96.261 18.378 96.8234 18.6864C99.2907 20.1015 100.361 25.4897 99.5265 32.42C99.327 34.1253 99.0004 35.9214 98.6013 37.7538C95.0454 36.8829 91.163 36.2117 87.081 35.7763C84.6319 32.42 82.092 29.3721 79.5339 26.7052C85.4483 21.2082 90.9997 18.1966 94.7733 18.1966V14.1509C89.7842 14.1509 83.2531 17.7067 76.6493 23.8751C70.0456 17.743 63.5144 14.2234 58.5254 14.2234V18.2691C62.2808 18.2691 67.8504 21.2626 73.7647 26.7234C71.2248 29.3903 68.6849 32.42 66.272 35.7763C62.1719 36.2117 58.2895 36.8829 54.7337 37.7719C54.3164 35.9577 54.008 34.1979 53.7903 32.5107C52.9376 25.5804 53.9898 20.1922 56.439 18.759C56.9833 18.4324 57.6908 18.2873 58.5254 18.2873V14.2416C57.0014 14.2416 55.6226 14.5681 54.4252 15.2575C49.3273 18.1966 48.1844 27.3583 50.815 38.8604C39.5306 42.3437 32.183 47.9134 32.183 53.7914C32.183 59.6876 39.5669 65.2754 50.8875 68.7405C48.2751 80.2789 49.4362 89.4588 54.5522 92.3978C55.7315 93.0872 57.1103 93.4138 58.6342 93.4138C63.6233 93.4138 70.1545 89.8579 76.7582 83.6896C83.3619 89.8216 89.8931 93.3412 94.8822 93.3412C96.4061 93.3412 97.7849 93.0146 98.9823 92.3252C104.08 89.3862 105.223 80.2244 102.593 68.7224C113.841 65.2572 121.188 59.6694 121.188 53.7914ZM97.5672 41.6906C96.8959 44.0309 96.0614 46.4438 95.118 48.8567C94.3742 47.4054 93.5941 45.954 92.7414 44.5026C91.9068 43.0513 91.0179 41.6362 90.1289 40.2574C92.7051 40.6384 95.1906 41.1101 97.5672 41.6906ZM89.2581 61.012C87.843 63.4611 86.3916 65.7833 84.8859 67.9422C82.1827 68.1781 79.4432 68.3051 76.6856 68.3051C73.9462 68.3051 71.2067 68.1781 68.5217 67.9604C67.0159 65.8015 65.5464 63.4974 64.1313 61.0664C62.7525 58.6898 61.5007 56.2769 60.3577 53.8458C61.4825 51.4148 62.7525 48.9837 64.1131 46.6071C65.5282 44.1579 66.9796 41.8357 68.4854 39.6768C71.1886 39.441 73.928 39.314 76.6856 39.314C79.4251 39.314 82.1645 39.441 84.8496 39.6587C86.3554 41.8176 87.8249 44.1217 89.24 46.5527C90.6188 48.9293 91.8706 51.3422 93.0135 53.7733C91.8706 56.2043 90.6188 58.6353 89.2581 61.012ZM95.118 58.6535C96.0977 61.0845 96.9322 63.5156 97.6216 65.874C95.245 66.4546 92.7414 66.9444 90.1471 67.3254C91.036 65.9285 91.925 64.4952 92.7595 63.0257C93.5941 61.5744 94.3742 60.1049 95.118 58.6535ZM76.7219 78.0111C75.0347 76.2695 73.3475 74.3283 71.6784 72.2056C73.3112 72.2782 74.9803 72.3326 76.6675 72.3326C78.3728 72.3326 80.0601 72.2964 81.711 72.2056C80.0782 74.3283 78.391 76.2695 76.7219 78.0111ZM63.2242 67.3254C60.648 66.9444 58.1625 66.4727 55.7859 65.8922C56.4572 63.5519 57.2917 61.139 58.2351 58.7261C58.9789 60.1774 59.759 61.6288 60.6117 63.0802C61.4644 64.5315 62.3352 65.9466 63.2242 67.3254ZM76.6312 29.5717C78.3184 31.3133 80.0056 33.2545 81.6747 35.3772C80.0419 35.3046 78.3728 35.2502 76.6856 35.2502C74.9803 35.2502 73.293 35.2864 71.6421 35.3772C73.2749 33.2545 74.9621 31.3133 76.6312 29.5717ZM63.206 40.2574C62.3171 41.6543 61.4281 43.0876 60.5936 44.5571C59.759 46.0084 58.9789 47.4598 58.2351 48.9112C57.2554 46.4801 56.4209 44.0491 55.7315 41.6906C58.1081 41.1282 60.6117 40.6384 63.206 40.2574ZM46.7874 62.9713C40.3651 60.2318 36.2106 56.6397 36.2106 53.7914C36.2106 50.9431 40.3651 47.3328 46.7874 44.6115C48.3476 43.9402 50.053 43.3415 51.8128 42.7791C52.8469 46.335 54.2075 50.036 55.8948 53.8277C54.2257 57.6012 52.8832 61.2841 51.8672 64.8218C50.0711 64.2594 48.3658 63.6426 46.7874 62.9713ZM56.5479 88.8964C54.0805 87.4813 53.0102 82.0931 53.8447 75.1628C54.0443 73.4574 54.3708 71.6614 54.7699 69.829C58.3258 70.6998 62.2082 71.3711 66.2902 71.8065C68.7394 75.1628 71.2793 78.2107 73.8373 80.8776C67.923 86.3746 62.3715 89.3862 58.5979 89.3862C57.7815 89.3681 57.0921 89.2048 56.5479 88.8964ZM99.581 75.0721C100.434 82.0024 99.3814 87.3906 96.9322 88.8238C96.3879 89.1504 95.6804 89.2955 94.8459 89.2955C91.0904 89.2955 85.5208 86.3021 79.6065 80.8413C82.1464 78.1744 84.6863 75.1447 87.0992 71.7884C91.1993 71.353 95.0817 70.6817 98.6376 69.7927C99.0548 71.6251 99.3814 73.3849 99.581 75.0721ZM106.566 62.9713C105.005 63.6426 103.3 64.2413 101.54 64.8037C100.506 61.2478 99.1456 57.5468 97.4583 53.7551C99.1274 49.9815 100.47 46.2987 101.486 42.761C103.282 43.3234 104.987 43.9402 106.584 44.6115C113.006 47.3509 117.161 50.9431 117.161 53.7914C117.143 56.6397 112.988 60.25 106.566 62.9713Z" fill="#61DAFB"/>
<path d="M76.6675 62.0824C81.2464 62.0824 84.9584 58.3704 84.9584 53.7914C84.9584 49.2125 81.2464 45.5005 76.6675 45.5005C72.0885 45.5005 68.3765 49.2125 68.3765 53.7914C68.3765 58.3704 72.0885 62.0824 76.6675 62.0824Z" fill="#61DAFB"/>
</svg>
