<svg width="123" height="96" viewBox="0 0 123 96" fill="none" xmlns="http://www.w3.org/2000/svg">
<path d="M96.9418 40.3023C96.9418 35.8847 91.0336 31.6981 81.9753 29.1019C84.0657 20.457 83.1366 13.5791 79.043 11.3771C78.0994 10.8606 76.9962 10.6159 75.7913 10.6159V13.6471C76.4591 13.6471 76.9962 13.7694 77.4462 14.0005C79.4204 15.0607 80.2769 19.0977 79.6091 24.2901C79.4495 25.5678 79.1882 26.9135 78.8688 28.2864C76.0236 27.6339 72.917 27.131 69.6508 26.8048C67.6911 24.2901 65.6588 22.0065 63.612 20.0084C68.3444 15.8898 72.7864 13.6335 75.8058 13.6335V10.6023C71.8138 10.6023 66.5879 13.2665 61.3039 17.888C56.0199 13.2936 50.794 10.6567 46.802 10.6567V13.6878C49.8069 13.6878 54.2634 15.9306 58.9958 20.022C56.9635 22.0201 54.9312 24.2901 53.0005 26.8048C49.7198 27.131 46.6133 27.6339 43.768 28.3C43.4342 26.9407 43.1874 25.6222 43.0132 24.3581C42.3309 19.1657 43.1729 15.1287 45.1326 14.0548C45.5681 13.8102 46.1342 13.7014 46.802 13.7014V10.6703C45.5826 10.6703 44.4793 10.9149 43.5212 11.4314C39.4421 13.6335 38.5276 20.4978 40.6325 29.1155C31.6033 31.7253 25.7241 35.8983 25.7241 40.3023C25.7241 44.7199 31.6323 48.9064 40.6905 51.5026C38.6002 60.1476 39.5292 67.0255 43.6229 69.2275C44.5664 69.744 45.6697 69.9887 46.8891 69.9887C50.8811 69.9887 56.107 67.3245 61.391 62.703C66.675 67.2973 71.9009 69.9343 75.8929 69.9343C77.1123 69.9343 78.2156 69.6896 79.1736 69.1731C83.2528 66.9711 84.1673 60.1068 82.0624 51.489C91.0626 48.8928 96.9418 44.7063 96.9418 40.3023ZM78.0414 31.236C77.5042 32.9894 76.8365 34.7972 76.0816 36.6051C75.4865 35.5177 74.8623 34.4302 74.18 33.3428C73.5122 32.2554 72.8009 31.1952 72.0896 30.1621C74.151 30.4476 76.1397 30.801 78.0414 31.236ZM71.3928 45.7122C70.2605 47.5472 69.0992 49.287 67.8944 50.9046C65.7314 51.0813 63.5394 51.1764 61.3329 51.1764C59.1409 51.1764 56.949 51.0813 54.8005 50.9182C53.5957 49.3006 52.4198 47.5744 51.2875 45.7529C50.1843 43.9723 49.1827 42.1645 48.2681 40.3431C49.1681 38.5216 50.1843 36.7002 51.273 34.9196C52.4053 33.0846 53.5666 31.3447 54.7715 29.7272C56.9344 29.5505 59.1264 29.4553 61.3329 29.4553C63.5249 29.4553 65.7169 29.5505 67.8653 29.7136C69.0702 31.3311 70.246 33.0574 71.3783 34.8788C72.4816 36.6594 73.4832 38.4673 74.3977 40.2887C73.4832 42.1101 72.4816 43.9315 71.3928 45.7122ZM76.0816 43.9451C76.8655 45.7665 77.5333 47.588 78.0849 49.355C76.1833 49.79 74.18 50.157 72.1041 50.4424C72.8154 49.3958 73.5267 48.322 74.1945 47.221C74.8623 46.1335 75.4865 45.0325 76.0816 43.9451ZM61.362 58.4485C60.0119 57.1436 58.6619 55.6892 57.3264 54.0988C58.6329 54.1532 59.9684 54.194 61.3184 54.194C62.683 54.194 64.033 54.1668 65.354 54.0988C64.0475 55.6892 62.6975 57.1436 61.362 58.4485ZM50.5617 50.4424C48.5004 50.157 46.5116 49.8036 44.61 49.3686C45.1471 47.6151 45.8148 45.8073 46.5697 43.9995C47.1649 45.0869 47.7891 46.1743 48.4714 47.2617C49.1536 48.3491 49.8504 49.4094 50.5617 50.4424ZM61.2894 22.1561C62.6394 23.461 63.9894 24.9154 65.325 26.5057C64.0185 26.4513 62.683 26.4106 61.3329 26.4106C59.9684 26.4106 58.6184 26.4378 57.2974 26.5057C58.6038 24.9154 59.9539 23.461 61.2894 22.1561ZM50.5472 30.1621C49.8359 31.2088 49.1246 32.2826 48.4568 33.3836C47.7891 34.471 47.1649 35.5584 46.5697 36.6459C45.7858 34.8244 45.1181 33.003 44.5664 31.236C46.4681 30.8146 48.4714 30.4476 50.5472 30.1621ZM37.4098 47.1802C32.271 45.1277 28.9467 42.4363 28.9467 40.3023C28.9467 38.1682 32.271 35.4633 37.4098 33.4244C38.6582 32.9215 40.0228 32.4729 41.4309 32.0515C42.2583 34.7157 43.3471 37.4886 44.6971 40.3295C43.3616 43.1567 42.2874 45.9161 41.4744 48.5666C40.0373 48.1452 38.6728 47.6831 37.4098 47.1802ZM45.2197 66.6041C43.2454 65.5439 42.389 61.5068 43.0567 56.3144C43.2164 55.0367 43.4777 53.6911 43.7971 52.3182C46.6423 52.9706 49.7488 53.4736 53.015 53.7998C54.9747 56.3144 57.007 58.598 59.0538 60.5961C54.3215 64.7147 49.8795 66.9711 46.86 66.9711C46.2068 66.9575 45.6552 66.8352 45.2197 66.6041ZM79.6527 56.2465C80.335 61.4389 79.493 65.4759 77.5333 66.5497C77.0978 66.7944 76.5316 66.9031 75.8639 66.9031C72.859 66.9031 68.4024 64.6603 63.6701 60.569C65.7024 58.5708 67.7347 56.3009 69.6654 53.7862C72.9461 53.46 76.0526 52.9571 78.8978 52.291C79.2317 53.6639 79.493 54.9824 79.6527 56.2465ZM85.2415 47.1802C83.9931 47.6831 82.6286 48.1317 81.2205 48.553C80.393 45.8889 79.3043 43.116 77.9543 40.2751C79.2898 37.4478 80.364 34.6885 81.1769 32.0379C82.614 32.4593 83.9786 32.9215 85.256 33.4244C90.3948 35.4769 93.7191 38.1682 93.7191 40.3023C93.7046 42.4363 90.3803 45.1413 85.2415 47.1802Z" fill="#61DAFB"/>
<path d="M61.3184 46.5143C64.9823 46.5143 67.9524 43.7331 67.9524 40.3024C67.9524 36.8717 64.9823 34.0906 61.3184 34.0906C57.6545 34.0906 54.6844 36.8717 54.6844 40.3024C54.6844 43.7331 57.6545 46.5143 61.3184 46.5143Z" fill="#61DAFB"/>
<path d="M10.9366 83.8299C11.871 85.373 13.046 87.0718 14.4617 88.9264L14.4404 89.1387C13.9308 89.3369 13.407 89.4643 12.869 89.521L12.6354 89.3723C11.4746 87.631 10.434 85.9322 9.51383 84.2758H7.02931V85.0828L7.11425 89.3298H5.39419L5.50037 85.2314L5.39419 75.718L9.55631 75.6968C10.887 75.6968 11.9134 76.0366 12.6354 76.7161C13.3716 77.3815 13.7397 78.337 13.7397 79.5828C13.7397 80.5172 13.4919 81.3595 12.9964 82.1098C12.5151 82.846 11.8285 83.4193 10.9366 83.8299ZM7.05054 82.8318L9.59878 82.8955C11.1843 82.4425 11.9771 81.3878 11.9771 79.7315C11.9771 78.8679 11.7435 78.2238 11.2764 77.7991C10.8092 77.3602 10.1084 77.1266 9.17407 77.0983L7.11425 77.162L7.05054 82.8318ZM16.8943 84.4033V84.4457C16.8943 85.6349 17.1632 86.548 17.7012 87.1851C18.2392 87.8221 19.0036 88.1407 19.9946 88.1407C20.4901 88.1407 20.9856 88.0628 21.4811 87.9071C21.9766 87.7372 22.4296 87.5036 22.8401 87.2063L23.01 87.3337L22.7552 88.7777C21.7642 89.259 20.7732 89.4997 19.7823 89.4997C18.3949 89.4997 17.3048 89.0609 16.512 88.1831C15.7192 87.2912 15.3228 86.0738 15.3228 84.5307C15.3228 82.9734 15.7192 81.7347 16.512 80.8145C17.3048 79.8943 18.3736 79.4342 19.7185 79.4342C20.8511 79.4342 21.7288 79.7598 22.3517 80.411C22.9746 81.0481 23.2861 81.94 23.2861 83.0867C23.2861 83.4689 23.2578 83.8299 23.2011 84.1697L22.9888 84.382L16.8943 84.4033ZM19.7185 80.6234C19.0107 80.6234 18.4161 80.857 17.9348 81.3241C17.4676 81.7772 17.1562 82.4213 17.0004 83.2565L21.6934 83.1716L21.7359 82.8743C21.7359 82.1523 21.5589 81.6002 21.205 81.218C20.8652 80.8216 20.3698 80.6234 19.7185 80.6234ZM29.1244 79.4342C30.0446 79.4342 30.7666 79.6607 31.2904 80.1137C31.8284 80.5667 32.0974 81.1896 32.0974 81.9824C32.0974 82.2231 32.0549 83.0937 31.97 84.5944C31.885 86.095 31.8426 86.9727 31.8426 87.2275C31.8426 87.539 31.8921 87.7584 31.9912 87.8858C32.0903 87.9991 32.2602 88.0557 32.5009 88.0557C32.7132 88.0557 32.9539 88.0132 33.2229 87.9283L33.3927 88.077L33.2229 89.0325C32.8123 89.2732 32.4088 89.4148 32.0124 89.4572C31.5736 89.4148 31.2197 89.259 30.9507 88.9901C30.6959 88.7211 30.5614 88.353 30.5472 87.8858H30.3986C29.6341 88.6645 28.8767 89.1953 28.1264 89.4785C27.1779 89.4785 26.4346 89.2449 25.8967 88.7777C25.3729 88.2964 25.111 87.6452 25.111 86.8241C25.111 86.2012 25.2738 85.7057 25.5994 85.3376C25.9392 84.9695 26.4346 84.7076 27.0859 84.5519L30.526 83.745L30.5472 82.3647C30.5472 81.8125 30.3986 81.3878 30.1013 81.0905C29.8181 80.7933 29.4076 80.6446 28.8696 80.6446C28.3883 80.6446 27.907 80.7579 27.4256 80.9844C26.9443 81.2109 26.4276 81.5648 25.8754 82.0461L25.7056 81.9612L25.4932 80.7508C26.6682 79.8731 27.8786 79.4342 29.1244 79.4342ZM27.4256 85.5712C27.1425 85.6561 26.9372 85.7765 26.8098 85.9322C26.6824 86.0738 26.6187 86.2932 26.6187 86.5905C26.6187 87.0577 26.7461 87.4257 27.0009 87.6947C27.2699 87.9495 27.6238 88.077 28.0627 88.077C28.8413 88.077 29.6341 87.5744 30.441 86.5692L30.5047 84.828L27.4256 85.5712ZM39.2099 79.4342C39.6487 79.4342 40.1018 79.4908 40.5689 79.6041C41.0503 79.7032 41.4679 79.8377 41.8218 80.0075L41.5245 81.4728L41.3334 81.5365C40.5972 81.0552 39.8682 80.8145 39.1462 80.8145C38.3109 80.8145 37.6597 81.133 37.1925 81.7701C36.7253 82.4071 36.4918 83.299 36.4918 84.4457C36.4918 85.5924 36.7324 86.4985 37.2138 87.1638C37.7092 87.8151 38.3888 88.1407 39.2523 88.1407C39.6346 88.1407 40.031 88.077 40.4415 87.9495C40.8662 87.8221 41.2626 87.6452 41.6307 87.4187L41.8218 87.5248L41.6307 88.9476C40.7671 89.3157 39.9036 89.4997 39.04 89.4997C37.7517 89.4997 36.7395 89.0609 36.0033 88.1831C35.2672 87.2912 34.8991 86.0738 34.8991 84.5307C34.8991 82.9593 35.2813 81.7205 36.0458 80.8145C36.8244 79.8943 37.8791 79.4342 39.2099 79.4342ZM46.9345 88.0345C47.4017 88.0345 47.9114 87.8929 48.4635 87.6098L48.6546 87.7372L48.4847 88.8414C47.7202 89.1953 47.0124 89.4006 46.3612 89.4572C45.5542 89.3015 44.9738 89.0042 44.6199 88.5654C44.266 88.1265 44.089 87.4894 44.089 86.6542L44.1527 85.1465L44.1315 80.7508H42.7937L42.7087 80.6234L42.8149 79.6253H44.1102V78.0539L45.5755 77.4168L45.7454 77.5655L45.7029 79.6253H48.5909L48.6758 79.7527L48.5697 80.7508H45.7029L45.5967 86.5055C45.5826 87.0718 45.6817 87.4682 45.894 87.6947C46.1064 87.9212 46.4532 88.0345 46.9345 88.0345ZM64.8863 85.3376L64.9288 89.3298H63.145L56.0949 78.4361H55.9887L55.9675 84.8492L55.9887 89.3298H54.4598L54.5235 85.2951L54.481 75.718H56.2435L63.2724 86.6117H63.4211L63.3998 75.803L64.9925 75.6756L64.8863 85.3376ZM71.4498 79.4342C72.37 79.4342 73.092 79.6607 73.6158 80.1137C74.1538 80.5667 74.4228 81.1896 74.4228 81.9824C74.4228 82.2231 74.3803 83.0937 74.2954 84.5944C74.2104 86.095 74.1679 86.9727 74.1679 87.2275C74.1679 87.539 74.2175 87.7584 74.3166 87.8858C74.4157 87.9991 74.5856 88.0557 74.8262 88.0557C75.0386 88.0557 75.2793 88.0132 75.5482 87.9283L75.7181 88.077L75.5482 89.0325C75.1377 89.2732 74.7342 89.4148 74.3378 89.4572C73.899 89.4148 73.545 89.259 73.2761 88.9901C73.0212 88.7211 72.8867 88.353 72.8726 87.8858H72.7239C71.9595 88.6645 71.2021 89.1953 70.4518 89.4785C69.5033 89.4785 68.76 89.2449 68.2221 88.7777C67.6983 88.2964 67.4364 87.6452 67.4364 86.8241C67.4364 86.2012 67.5992 85.7057 67.9248 85.3376C68.2645 84.9695 68.76 84.7076 69.4112 84.5519L72.8514 83.745L72.8726 82.3647C72.8726 81.8125 72.7239 81.3878 72.4267 81.0905C72.1435 80.7933 71.733 80.6446 71.195 80.6446C70.7137 80.6446 70.2323 80.7579 69.751 80.9844C69.2697 81.2109 68.7529 81.5648 68.2008 82.0461L68.0309 81.9612L67.8186 80.7508C68.9936 79.8731 70.204 79.4342 71.4498 79.4342ZM69.751 85.5712C69.4679 85.6561 69.2626 85.7765 69.1352 85.9322C69.0078 86.0738 68.9441 86.2932 68.9441 86.5905C68.9441 87.0577 69.0715 87.4257 69.3263 87.6947C69.5953 87.9495 69.9492 88.077 70.3881 88.077C71.1667 88.077 71.9595 87.5744 72.7664 86.5692L72.8301 84.828L69.751 85.5712ZM81.11 88.0345C81.5772 88.0345 82.0869 87.8929 82.639 87.6098L82.8301 87.7372L82.6602 88.8414C81.8958 89.1953 81.1879 89.4006 80.5367 89.4572C79.7298 89.3015 79.1493 89.0042 78.7954 88.5654C78.4415 88.1265 78.2645 87.4894 78.2645 86.6542L78.3282 85.1465L78.307 80.7508H76.9692L76.8842 80.6234L76.9904 79.6253H78.2858V78.0539L79.751 77.4168L79.9209 77.5655L79.8784 79.6253H82.7664L82.8513 79.7527L82.7452 80.7508H79.8784L79.7722 86.5055C79.7581 87.0718 79.8572 87.4682 80.0695 87.6947C80.2819 87.9212 80.6287 88.0345 81.11 88.0345ZM84.9395 85.2102L84.8758 79.7103L86.5109 79.5616L86.4685 85.0615L86.5109 89.3298H84.8546L84.9395 85.2102ZM85.7252 75.2508C86.0084 75.2508 86.2349 75.3358 86.4048 75.5057C86.5747 75.6756 86.6596 75.9091 86.6596 76.2064C86.6596 76.5179 86.5676 76.7656 86.3835 76.9497C86.2137 77.1337 85.973 77.2257 85.6615 77.2257C85.3642 77.2257 85.1307 77.1408 84.9608 76.9709C84.805 76.801 84.7272 76.5604 84.7272 76.2489C84.7272 75.9516 84.8121 75.7109 84.982 75.5269C85.166 75.3429 85.4138 75.2508 85.7252 75.2508ZM90.5289 80.8357L92.6312 87.6522H92.7586L95.2219 80.9207L95.5616 79.6041H97.0694L93.5018 89.3298H91.6968L88.6814 79.6465L90.2528 79.5404L90.5289 80.8357ZM99.409 84.4033V84.4457C99.409 85.6349 99.678 86.548 100.216 87.1851C100.754 87.8221 101.518 88.1407 102.509 88.1407C103.005 88.1407 103.5 88.0628 103.996 87.9071C104.491 87.7372 104.944 87.5036 105.355 87.2063L105.525 87.3337L105.27 88.7777C104.279 89.259 103.288 89.4997 102.297 89.4997C100.91 89.4997 99.8196 89.0609 99.0268 88.1831C98.234 87.2912 97.8376 86.0738 97.8376 84.5307C97.8376 82.9734 98.234 81.7347 99.0268 80.8145C99.8196 79.8943 100.888 79.4342 102.233 79.4342C103.366 79.4342 104.244 79.7598 104.867 80.411C105.489 81.0481 105.801 81.94 105.801 83.0867C105.801 83.4689 105.773 83.8299 105.716 84.1697L105.504 84.382L99.409 84.4033ZM102.233 80.6234C101.525 80.6234 100.931 80.857 100.45 81.3241C99.9824 81.7772 99.6709 82.4213 99.5152 83.2565L104.208 83.1716L104.251 82.8743C104.251 82.1523 104.074 81.6002 103.72 81.218C103.38 80.8216 102.885 80.6234 102.233 80.6234Z" fill="white"/>
</svg>
