<svg width="165" height="44" viewBox="0 0 165 44" fill="none" xmlns="http://www.w3.org/2000/svg">
<g clip-path="url(#clip0_26_190)">
<g opacity="0.974563">
<g opacity="0.974563">
<path opacity="0.974563" fill-rule="evenodd" clip-rule="evenodd" d="M24.6827 31.8683V19.9009C24.6827 19.4747 24.3372 19.1292 23.911 19.1292H12.0043V6.77612H36.2052C36.6315 6.77612 36.977 7.12165 36.977 7.54788V31.8683H24.6827Z" fill="#8E75FF"/>
<path opacity="0.404989" fill-rule="evenodd" clip-rule="evenodd" d="M12.0043 6.77612V19.1292H0.638472C0.425358 19.1292 0.252594 18.9564 0.252594 18.7433C0.252594 18.6413 0.292997 18.5434 0.364965 18.4711L12.0043 6.77612Z" fill="#8E75FF"/>
<path opacity="0.404989" fill-rule="evenodd" clip-rule="evenodd" d="M24.6827 43.2867V31.8684H36.977L25.3421 43.5589C25.1918 43.71 24.9475 43.7106 24.7964 43.5602C24.7236 43.4878 24.6827 43.3894 24.6827 43.2867Z" fill="#8E75FF"/>
<path opacity="0.404989" fill-rule="evenodd" clip-rule="evenodd" d="M12.0043 19.1292H24.2969C24.51 19.1292 24.6827 19.3019 24.6827 19.515V31.8682H12.776C12.3498 31.8682 12.0043 31.5227 12.0043 31.0965V19.1292Z" fill="#8E75FF"/>
</g>
</g>
<path d="M84.3387 15.302H79.4761V24.5168C79.4761 25.2847 79.6676 25.8459 80.0505 26.2003C80.4335 26.5547 80.9931 26.7541 81.7296 26.7984C82.4033 26.8389 83.225 26.8362 84.1945 26.7902C84.2297 26.7885 84.2755 26.7863 84.332 26.7834C84.4039 26.7797 84.4653 26.835 84.469 26.907C84.4691 26.9092 84.4692 26.9115 84.4692 26.9137V31.8428C84.4691 31.9093 84.4191 31.9652 84.3529 31.9725C84.3167 31.9764 84.2868 31.9797 84.2631 31.9822C80.4543 32.3893 77.7613 32.0126 76.1842 30.852C74.5787 29.6706 73.776 27.5589 73.776 24.5168V15.302H70.0623C69.9902 15.302 69.9318 15.2436 69.9318 15.1715V9.93907C69.9318 9.86701 69.9902 9.80858 70.0623 9.80858H73.776V6.14869C73.776 6.0453 73.837 5.95166 73.9316 5.90992L79.2929 3.54412C79.3588 3.51502 79.4359 3.54489 79.465 3.61082C79.4723 3.62742 79.4761 3.64536 79.4761 3.6635V9.80858H84.3387C84.4107 9.80858 84.4692 9.86701 84.4692 9.93907V15.1715C84.4692 15.2436 84.4107 15.302 84.3387 15.302ZM94.8045 13.6186C95.3347 12.2009 96.2111 11.1376 97.4336 10.4288C98.5524 9.78011 99.7883 9.42825 101.141 9.37321C101.202 9.37077 101.284 9.36876 101.388 9.3672C101.46 9.36609 101.52 9.42364 101.521 9.49572C101.521 9.49637 101.521 9.49702 101.521 9.49767V15.5065C101.521 15.6252 101.425 15.7214 101.306 15.7214C101.3 15.7214 101.293 15.7211 101.287 15.7205C99.6429 15.5714 98.1671 15.934 96.8592 16.8083C95.4894 17.7239 94.8045 19.2449 94.8045 21.3714V31.8291C94.8045 31.9012 94.7461 31.9596 94.674 31.9596H89.2349C89.1629 31.9596 89.1044 31.9012 89.1044 31.8291V9.93907C89.1044 9.86701 89.1629 9.80858 89.2349 9.80858H94.674C94.7461 9.80858 94.8045 9.86701 94.8045 9.93907V13.6186ZM121.756 9.80858H127.195C127.267 9.80858 127.326 9.86701 127.326 9.93907V31.8291C127.326 31.9012 127.267 31.9596 127.195 31.9596H121.756C121.684 31.9596 121.626 31.9012 121.626 31.8291V29.3458C119.917 31.5018 117.516 32.5798 114.423 32.5798C111.478 32.5798 108.952 31.4501 106.845 29.1907C104.739 26.9313 103.686 24.1624 103.686 20.8841C103.686 17.6057 104.739 14.8369 106.845 12.5775C108.952 10.318 111.478 9.18835 114.423 9.18835C117.516 9.18835 119.917 10.2664 121.626 12.4224V9.93907C121.626 9.86701 121.684 9.80858 121.756 9.80858ZM111.109 25.4029C112.258 26.5547 113.716 27.1307 115.484 27.1307C117.251 27.1307 118.717 26.5474 119.88 25.3807C121.044 24.2141 121.626 22.7152 121.626 20.8841C121.626 19.0529 121.044 17.5541 119.88 16.3874C118.717 15.2208 117.251 14.6375 115.484 14.6375C113.716 14.6375 112.258 15.2208 111.109 16.3874C109.96 17.5541 109.386 19.0529 109.386 20.8841C109.386 22.7152 109.96 24.2215 111.109 25.4029ZM144.461 9.18835C147.436 9.18835 149.977 10.318 152.083 12.5775C154.189 14.8369 155.242 17.6057 155.242 20.8841C155.242 24.1624 154.189 26.9313 152.083 29.1907C149.977 31.4501 147.436 32.5798 144.461 32.5798C141.368 32.5798 138.982 31.5018 137.303 29.3458V40.6895C137.303 40.7616 137.244 40.82 137.172 40.82H131.733C131.661 40.82 131.603 40.7616 131.603 40.6895V9.93907C131.603 9.86701 131.661 9.80858 131.733 9.80858H137.172C137.244 9.80858 137.303 9.86701 137.303 9.93907V12.4224C138.982 10.2664 141.368 9.18835 144.461 9.18835ZM139.026 25.4029C140.175 26.5547 141.633 27.1307 143.4 27.1307C145.168 27.1307 146.633 26.5474 147.797 25.3807C148.961 24.2141 149.542 22.7152 149.542 20.8841C149.542 19.0529 148.961 17.5541 147.797 16.3874C146.633 15.2208 145.168 14.6375 143.4 14.6375C141.633 14.6375 140.175 15.2208 139.026 16.3874C137.877 17.5541 137.303 19.0529 137.303 20.8841C137.303 22.7152 137.877 24.2215 139.026 25.4029ZM161.465 7.15046C160.522 7.15046 159.705 6.80343 159.013 6.10936C158.32 5.4153 157.974 4.59572 157.974 3.6506C157.974 2.70549 158.32 1.87853 159.013 1.16969C159.705 0.460858 160.522 0.106445 161.465 0.106445C162.437 0.106445 163.269 0.460858 163.962 1.16969C164.654 1.87853 165 2.70549 165 3.6506C165 4.59572 164.654 5.4153 163.962 6.10936C163.269 6.80343 162.437 7.15046 161.465 7.15046ZM158.637 31.8291V9.93907C158.637 9.86701 158.696 9.80858 158.768 9.80858H164.207C164.279 9.80858 164.337 9.86701 164.337 9.93907V31.8291C164.337 31.9012 164.279 31.9596 164.207 31.9596H158.768C158.696 31.9596 158.637 31.9012 158.637 31.8291ZM56.5432 16.0995C56.5432 16.6902 56.9336 17.1701 57.7142 17.5393C58.4948 17.9085 59.4448 18.2333 60.5642 18.5139C61.6836 18.7945 62.803 19.1489 63.9224 19.5772C65.0418 20.0054 65.9918 20.7216 66.7724 21.7258C67.5531 22.73 67.9434 23.9852 67.9434 25.4915C67.9434 27.7657 67.0965 29.5156 65.4027 30.7413C63.7088 31.967 61.5953 32.5798 59.0619 32.5798C54.6271 32.5798 51.5718 30.9004 49.8959 27.5417C49.8814 27.5127 49.8631 27.4752 49.8409 27.4293C49.8096 27.3644 49.8368 27.2864 49.9017 27.2551C49.9029 27.2545 49.9042 27.2539 49.9055 27.2533L54.6999 25.1235C54.8261 25.0674 54.9741 25.1193 55.0376 25.2419C55.0383 25.2432 55.0389 25.2445 55.0396 25.2458C55.7863 26.6796 57.1271 27.3965 59.0619 27.3965C61.0945 27.3965 62.1108 26.7615 62.1108 25.4915C62.1108 24.9008 61.7204 24.4209 60.9398 24.0517C60.1592 23.6825 59.2092 23.3502 58.0898 23.0549C56.9704 22.7595 55.851 22.3904 54.7316 21.9473C53.6122 21.5043 52.6622 20.8029 51.8816 19.843C51.1009 18.8831 50.7106 17.6796 50.7106 16.2324C50.7106 14.0468 51.5133 12.3264 53.1188 11.0712C54.7242 9.81596 56.72 9.18835 59.1061 9.18835C60.903 9.18835 62.5379 9.59445 64.0108 10.4067C65.348 11.144 66.4142 12.1119 67.2386 13.4111C67.2806 13.4773 67.3371 13.5705 67.408 13.6906C67.4447 13.7526 67.424 13.8327 67.362 13.8693C67.3576 13.8719 67.3532 13.8742 67.3485 13.8762L62.5417 16.0084C62.4569 16.046 62.3572 16.0166 62.3064 15.9388C61.585 14.835 60.5182 14.2831 59.1061 14.2831C58.3696 14.2831 57.7584 14.4455 57.2723 14.7704C56.7863 15.0953 56.5432 15.5383 56.5432 16.0995Z" fill="#2F2E8B"/>
</g>
<defs>
<clipPath id="clip0_26_190">
<rect width="165" height="43.7873" fill="white" transform="translate(0 0.106445)"/>
</clipPath>
</defs>
</svg>
